<?xml version="1.0" standalone="no"?>
<!DOCTYPE svg PUBLIC "-//W3C//DTD SVG 20010904//EN"
 "http://www.w3.org/TR/2001/REC-SVG-20010904/DTD/svg10.dtd">
<svg version="1.0" xmlns="http://www.w3.org/2000/svg"
 width="800.000000pt" height="800.000000pt" viewBox="0 0 800.000000 800.000000"
 preserveAspectRatio="xMidYMid meet">

<g transform="translate(0.000000,800.000000) scale(0.100000,-0.100000)"
fill="#000000" stroke="none">
<path d="M2632 6329 c-64 -32 -82 -75 -82 -193 l0 -94 -272 -4 c-241 -4 -280
-7 -335 -25 -148 -49 -247 -150 -299 -303 -18 -53 -19 -118 -19 -1535 l0
-1480 24 -65 c64 -174 197 -284 376 -310 43 -6 433 -10 1012 -10 l943 0 -21
53 c-12 28 -31 97 -44 152 l-22 100 -931 5 c-920 5 -931 5 -958 26 -15 11 -37
33 -48 48 -21 27 -21 34 -24 1172 l-2 1144 1710 0 1710 0 0 -445 0 -445 33 0
c36 0 170 -31 235 -54 l42 -15 0 762 c0 474 -4 787 -10 827 -24 151 -120 283
-252 345 -84 40 -169 54 -330 55 l-108 0 0 -149 0 -150 144 -3 c157 -3 173 -8
220 -72 19 -25 21 -44 24 -217 l3 -189 -1710 0 -1711 0 0 177 c0 206 10 243
79 281 37 21 50 22 290 22 l251 0 0 -27 c0 -38 33 -89 72 -113 69 -42 166 -17
208 52 19 31 20 51 20 308 0 315 -2 326 -80 367 -54 29 -83 29 -138 2z"/>
<path d="M4510 6328 c-65 -33 -80 -70 -80 -189 l0 -96 -655 -5 c-361 -3 -657
-7 -660 -9 -2 -3 -5 -68 -6 -144 l-1 -140 660 -3 659 -2 6 -41 c17 -131 205
-163 277 -47 19 31 20 47 18 315 -3 267 -4 283 -24 309 -53 71 -121 90 -194
52z"/>
<path d="M2334 4440 c-12 -4 -31 -21 -43 -36 -20 -25 -21 -38 -21 -225 0 -195
0 -198 24 -226 23 -26 30 -28 117 -32 87 -3 93 -2 111 20 18 22 19 22 9 2 -11
-21 -10 -22 69 -22 l79 0 4 87 3 87 2 -87 c2 -80 4 -88 21 -88 11 0 22 8 24
18 4 16 5 16 6 0 1 -15 12 -18 74 -18 49 0 80 5 95 16 28 20 28 42 0 47 -13 2
-7 4 12 3 l35 -1 3 188 c4 288 18 277 -345 276 -142 0 -268 -4 -279 -9z m396
-340 c0 -5 -7 -7 -15 -4 -8 4 -15 8 -15 10 0 2 7 4 15 4 8 0 15 -4 15 -10z m7
-112 c-2 -18 -4 -4 -4 32 0 36 2 50 4 33 2 -18 2 -48 0 -65z m-147 -8 c-8 -5
-19 -10 -25 -10 -5 0 -3 5 5 10 8 5 20 10 25 10 6 0 3 -5 -5 -10z m57 -15 c1
-15 0 -15 -3 -3 -3 9 -13 19 -22 22 -12 3 -12 4 3 3 12 -1 21 -10 22 -22z
m201 -15 c-7 -10 -14 -17 -17 -15 -4 4 18 35 25 35 2 0 -1 -9 -8 -20z"/>
<path d="M3352 4435 c-56 -24 -64 -59 -60 -272 l3 -185 32 -28 31 -28 283 0
282 -1 28 29 29 28 0 207 0 206 -25 23 c-14 13 -39 26 -56 30 -18 3 -140 6
-273 6 -186 -1 -248 -4 -274 -15z m67 -454 c-26 -4 -53 -11 -61 -16 -8 -6 -5
-2 5 8 13 11 34 17 61 16 l41 -2 -46 -6z m254 -15 c-15 -13 -30 -22 -32 -20
-7 6 33 43 47 43 7 1 0 -10 -15 -23z m84 18 c-3 -3 -12 -4 -19 -1 -8 3 -5 6 6
6 11 1 17 -2 13 -5z m138 1 c-23 -8 -83 -10 -79 -3 3 4 24 8 47 7 23 0 38 -2
32 -4z m-405 -15 c0 -5 -2 -10 -4 -10 -3 0 -8 5 -11 10 -3 6 -1 10 4 10 6 0
11 -4 11 -10z m441 -7 c13 -16 12 -17 -3 -4 -17 13 -22 21 -14 21 2 0 10 -8
17 -17z"/>
<path d="M4373 4431 c-17 -11 -37 -29 -42 -40 -7 -11 -11 -84 -11 -175 0 -152
0 -155 23 -159 l22 -4 -22 -2 c-19 -1 -23 -7 -23 -35 0 -35 42 -92 59 -81 5 3
12 1 16 -5 8 -13 85 -13 85 0 0 6 7 10 15 10 11 0 12 5 5 25 -6 15 -6 25 0 25
5 0 11 -9 15 -20 6 -18 12 -16 93 24 93 47 201 84 325 111 l77 17 0 129 c0
128 0 129 -29 161 l-29 33 -274 3 c-257 2 -275 1 -305 -17z m303 -177 c36 -17
50 -31 41 -41 -3 -3 -19 4 -36 16 -23 17 -34 19 -55 11 -14 -5 -33 -7 -43 -3
-10 4 -14 2 -9 -5 3 -6 1 -14 -5 -18 -8 -5 -9 -3 -4 6 5 9 4 11 -3 6 -7 -4
-12 -14 -12 -22 0 -8 -4 -12 -10 -9 -6 4 -7 -1 -3 -10 3 -10 1 -20 -5 -24 -19
-12 23 -89 52 -97 32 -8 99 4 91 16 -3 5 -1 11 5 15 20 12 11 61 -13 74 -13 7
-24 19 -24 26 0 23 46 -14 54 -44 15 -58 -6 -94 -61 -107 -46 -11 -67 -5 -98
28 -23 24 -27 38 -27 77 2 52 19 79 64 104 38 21 59 21 101 1z m-56 -64 c0 -5
-4 -10 -10 -10 -20 0 -23 -50 -5 -70 22 -24 9 -27 -17 -3 -22 20 -23 36 -2 68
17 25 34 33 34 15z m130 -48 c0 -22 -26 -82 -35 -82 -2 0 0 12 5 26 6 14 10
44 10 67 0 31 3 38 10 27 5 -8 10 -25 10 -38z m-100 -21 c0 -6 -4 -12 -8 -15
-5 -3 -9 1 -9 9 0 8 4 15 9 15 4 0 8 -4 8 -9z m-283 -111 c-5 -18 0 -20 56
-22 l62 -2 -54 -3 c-67 -5 -81 0 -74 26 3 12 8 21 10 21 3 0 3 -9 0 -20z"/>
<path d="M5078 3944 c-5 -4 -24 -7 -43 -6 -19 1 -35 -3 -35 -9 0 -6 -9 -8 -19
-4 -13 4 -27 -2 -42 -17 -17 -17 -20 -19 -16 -5 7 18 -1 21 -27 11 -13 -5 -16
-23 -16 -89 0 -86 12 -113 35 -82 17 24 28 21 13 -3 -15 -24 -43 -26 -52 -4
-3 9 -6 49 -6 91 l0 75 -32 -7 c-18 -4 -49 -15 -68 -24 -33 -15 -35 -19 -41
-76 l-6 -60 -1 58 -2 57 -32 -13 c-27 -11 -34 -20 -39 -53 -6 -38 -6 -38 -8
-6 -1 30 -3 32 -22 21 -18 -9 -20 -17 -16 -47 4 -20 3 -31 -3 -26 -4 5 -10 19
-12 32 -3 23 -6 22 -73 -26 -82 -58 -215 -193 -272 -277 -125 -186 -189 -376
-200 -596 -13 -275 67 -534 232 -751 172 -226 432 -385 709 -434 108 -19 316
-18 414 1 486 98 844 470 922 958 21 125 9 339 -25 465 -27 97 -29 102 -45 85
-9 -10 -48 -54 -87 -98 -66 -75 -69 -82 -60 -110 5 -16 10 -93 10 -170 0 -166
-25 -280 -91 -411 -294 -583 -1065 -702 -1508 -232 -171 181 -254 392 -254
642 0 216 58 392 188 563 131 175 322 294 569 353 l42 11 4 97 3 97 2 -97 2
-98 66 0 c52 0 65 3 61 14 -5 11 0 11 24 -1 17 -9 47 -13 70 -11 21 2 39 1 39
-3 0 -4 18 -9 41 -13 61 -10 155 -44 242 -87 46 -24 83 -36 90 -32 47 29 167
118 167 124 0 13 -144 98 -229 135 -92 40 -234 78 -261 71 -11 -3 -21 0 -23 6
-4 12 -268 23 -279 11z m92 -24 c-6 -11 -12 -20 -14 -20 -2 0 -2 9 1 20 3 11
9 20 15 20 5 0 4 -9 -2 -20z m79 -1 c-22 -13 -31 -11 -17 5 7 8 17 12 22 9 4
-3 2 -9 -5 -14z m-230 -107 c-2 -96 -6 -86 -11 25 -2 39 0 69 4 67 4 -3 7 -44
7 -92z m248 74 c-19 -15 -23 -41 -6 -51 6 -4 22 3 35 16 14 13 23 17 19 9 -10
-26 -44 -43 -61 -29 -8 6 -14 18 -14 27 0 17 32 52 40 45 3 -3 -3 -10 -13 -17z
m-40 -78 c10 -11 31 -18 54 -18 21 0 40 -3 43 -8 2 -4 -14 -6 -37 -4 -59 6
-87 34 -85 86 l1 41 4 -40 c3 -22 12 -48 20 -57z m-80 35 c-3 -10 -5 -4 -5 12
0 17 2 24 5 18 2 -7 2 -21 0 -30z m33 -76 c0 -5 -4 -5 -10 -2 -5 3 -10 14 -10
23 0 15 2 15 10 2 5 -8 10 -19 10 -23z m291 -10 c-10 -9 -11 -8 -5 6 3 10 9
15 12 12 3 -3 0 -11 -7 -18z m-704 -33 c-3 -3 -12 -4 -19 -1 -8 3 -5 6 6 6 11
1 17 -2 13 -5z"/>
<path d="M6210 3699 c-153 -84 -424 -281 -835 -607 l-200 -159 -49 41 c-242
205 -350 276 -415 276 -34 0 -71 -39 -71 -75 0 -44 34 -133 101 -269 65 -130
214 -371 263 -424 59 -66 182 -87 261 -45 52 28 375 357 640 653 447 498 506
579 454 631 -29 29 -66 23 -149 -22z"/>
<path d="M2343 3523 c-12 -2 -34 -18 -48 -34 -25 -30 -25 -31 -25 -229 0 -196
0 -199 24 -227 l24 -28 287 -3 286 -3 35 35 34 34 0 186 c0 287 14 277 -342
275 -139 -1 -263 -4 -275 -6z"/>
<path d="M3353 3515 c-58 -25 -65 -53 -61 -267 l3 -190 33 -29 32 -29 264 0
264 0 11 50 c6 28 11 57 11 65 0 8 16 62 35 119 25 76 35 122 35 168 0 76 -16
103 -68 118 -59 16 -520 12 -559 -5z"/>
</g>
</svg>
